<?xml version="1.0" encoding="UTF-8"?>
<svg id="Layer_1" xmlns="http://www.w3.org/2000/svg" version="1.1" viewBox="0 0 1080 1022.73">
  <!-- Generator: Adobe Illustrator 29.4.0, SVG Export Plug-In . SVG Version: 2.1.0 Build 152)  -->
  <defs>
    <style>
      .st0, .st1 {
        fill: #145593;
      }

      .st1 {
        fill-rule: evenodd;
      }

      .st2 {
        stroke: #000;
      }
    </style>
  </defs>
  <path class="st0" d="M388.97,340.31v96.9l-38.12,27.87v-124.77h38.12ZM388.97,540.47v182.68h-38.12v-153.61l38.12-29.08h0Z"/>
  <polygon class="st0" points="412.64 495.44 388.55 513.79 356.26 538.48 336.47 553.57 336.47 723.16 298.36 723.16 298.36 533.34 323.97 513.79 323.97 513.79 360.28 486.08 412.64 446.15 465.01 486.08 501.32 513.79 501.32 513.79 526.93 533.34 526.93 723.16 488.81 723.16 488.81 553.57 469.02 538.48 436.74 513.79 412.64 495.44 412.64 495.44"/>
  <polygon class="st0" points="583.85 184.83 583.85 723.16 545.73 723.16 545.73 210.4 583.85 184.83 583.85 184.83"/>
  <polygon class="st0" points="572.69 238.55 377.81 368.46 350.85 340.31 579.52 187.64 572.69 238.55 572.69 238.55"/>
  <polygon class="st1" points="488.81 683.35 488.81 723.16 872.11 723.16 872.11 683.35 488.81 683.35 488.81 683.35"/>
  <polygon class="st1" points="298.36 723.16 388.97 723.16 388.97 683.35 298.36 683.35 204.98 683.35 204.98 723.16 298.36 723.16 298.36 723.16"/>
  <polygon class="st0" points="545.73 39.18 545.73 577.5 583.85 577.5 583.85 64.75 545.73 39.18 545.73 39.18"/>
  <polygon class="st0" points="556.9 92.9 751.78 222.81 778.74 194.66 550.07 41.99 556.9 92.9 556.9 92.9"/>
  <polygon class="st0" points="740.62 169.08 740.62 723.16 778.74 723.16 778.74 194.66 740.62 169.08 740.62 169.08"/>
  <polygon class="st1" points="615.07 351.27 644.45 351.27 644.45 683.35 615.07 683.35 615.07 351.27 615.07 351.27"/>
  <polygon class="st1" points="680.03 464.85 709.41 464.85 709.41 683.35 680.03 683.35 680.03 464.85 680.03 464.85"/>
  <path id="_x34_23" class="st0" d="M810.03,865.96c-.06-8.15-.27-19.42-.48-25.03-.21-5.61-.38-20.15-.38-32.3v-22.09s-16.29-.27-16.29-.27l-16.28-.27v-20.41h88.46v20.41l-15.07.49-15.07.49.39,46.9.39,46.9h-25.56l-.1-14.82"/>
  <path id="_x34_231" data-name="_x34_23" class="st0" d="M221.76,881.21c-11.24-2.72-20.28-9.17-24.82-17.7-1.71-3.21-3.11-6.49-3.11-7.29,0-1.69,3.33-2.5,13.62-3.31,7.2-.57,7.32-.54,8.71,2.06,3.2,5.97,10.84,8.6,16.48,5.67,1.83-.95,4.24-2.97,5.35-4.48,1.96-2.67,2.02-4,2.29-46.93l.28-44.19,12.72.27,12.72.27.43,35.97c.47,39.69-.38,54.91-3.46,61.76-3.8,8.45-12.45,15.15-23.12,17.88-7.11,1.82-10.62,1.82-18.1.01"/>
  <path id="_x34_232" data-name="_x34_23" class="st0" d="M335.75,882.06c-15.8-2.64-33.88-15.73-41.5-30.02-13.85-25.98-6.59-59.74,16.53-76.9,23.08-17.13,52.04-17.1,75.11.1,10.54,7.86,17.92,19.11,21.38,32.62,2.07,8.08,1.52,26.34-1.01,33.56-4.57,13.04-11.1,22.03-21.71,29.86-6.15,4.54-16.53,9.01-24.22,10.43-5.31.98-19.59,1.18-24.58.35M361.29,858.17c23.51-10.77,29.09-43.98,10.56-62.85-5.57-5.67-8.1-7.26-14.71-9.22-17.98-5.34-35.77,5.24-41.85,24.89-3.77,12.17-1.28,26.56,6.39,36.98,8.96,12.17,25.83,16.52,39.62,10.21"/>
  <path id="_x34_233" data-name="_x34_23" class="st0" d="M546.69,822.94v-57.85l38.64.25,38.64.25.04,9.23c.02,5.08-.13,9.78-.35,10.45-.3.93-6.37,1.22-26.04,1.22h-25.66v25.27h51.59l-.28,9.96-.28,9.96-25.52.26-25.52.26v28.13l26.98.26,26.98.26.28,9.96.28,9.96h-79.78v-57.85"/>
  <path id="_x34_234" data-name="_x34_23" class="st0" d="M431.99,822.95v-57.84h28.04c25.65,0,28.53.17,33.78,1.98,18.13,6.24,27.78,21.15,26.36,40.76-.86,11.94-5.19,19.52-14.18,24.83-2.72,1.6-4.95,3.31-4.96,3.79-.01.48,1.88,4.2,4.21,8.26,6.11,10.68,19.1,34.81,19.1,35.49,0,.32-6.45.57-14.34.57h-14.34s-10.53-20.9-10.53-20.9l-10.53-20.9h-17.34v41.8h-25.27v-57.84M482.61,819.03c5.18-1.83,7.35-3.73,9.86-8.66,4.02-7.87.1-18.17-8.37-22.02-3.17-1.44-6.38-1.82-15.42-1.84l-11.42-.02v16.36c0,9,.29,16.65.65,17.01,1.32,1.32,20.43.67,24.7-.84"/>
  <path id="_x34_235" data-name="_x34_23" class="st0" d="M648.55,823.84v-57.84h23.16l5.18,6.56c5.86,7.42,22.4,27.69,23.2,28.43,1.39,1.28,23.86,30.04,26,33.26,2.99,4.51,4.37,4.7,3.71.52-.27-1.74-.62-17.81-.77-35.72l-.28-32.56,12.88-.27,12.88-.27v115.73h-21.3l-3.69-4.7c-2.03-2.59-9.16-11.23-15.85-19.2-11.01-13.13-31.23-38.85-36.8-46.82-1.22-1.74-2.51-3.16-2.87-3.16-.36,0-.38,7.55-.04,16.77.34,9.22.67,25.85.73,36.94l.11,20.17h-26.25v-57.84"/>
  <path id="_x34_26" class="st2" d="M878.23,963.69c-4.19-1.48-9.95-6.07-9.95-7.93s3.55-1.23,5.3.89c.91,1.09,3.88,2.65,6.61,3.47,4.09,1.23,5.79,1.09,9.69-.76,10.55-5.01,7.38-10.14-9.66-15.59-4.55-1.46-6.6-3.06-8.6-6.72l-2.63-4.81,2.77-3.71c4.2-5.62,11.22-7.86,17.82-5.69,5.65,1.86,8.82,4.56,6.82,5.8-.67.41-3.7-.23-6.75-1.43-5.16-2.03-5.87-2.02-10.22.05-4.07,1.94-4.62,2.77-4.26,6.38.39,3.87,1.08,4.39,10.25,7.61,11.12,3.92,15.62,8.3,14.23,13.86-1.6,6.36-13.83,11.27-21.41,8.59"/>
  <path id="_x34_261" data-name="_x34_26" class="st2" d="M80.52,962.34c-.39-1.01-.54-10.17-.33-20.35l.37-18.52,8.24-.39c9.76-.47,15.29,1.87,18.33,7.75,1.89,3.66,1.87,4.32-.2,7.84-1.25,2.11-3.66,4.59-5.36,5.5-1.7.91-3.09,2.18-3.09,2.82s2.07,4.4,4.6,8.35c2.71,4.24,4.05,7.53,3.26,8.01-2.02,1.25-4.16-1.08-9.17-10-4.17-7.42-4.91-8.07-8.59-7.71q-4.02.39-4.03,8.91c0,5.63-.57,8.7-1.66,9.07-.91.31-1.97-.27-2.36-1.28M100.29,939.96c7.73-6.08,2.28-13.66-9.29-12.92l-6.38.41-.23,6.64c-.13,3.65.04,7.08.37,7.63,1.33,2.19,12.06.97,15.53-1.76"/>
  <path id="_x34_262" data-name="_x34_26" class="st2" d="M945.19,962.34c-.51-12.6.51-36.48,1.63-37.82.96-1.16,5.2-1.71,13.2-1.71,9.59,0,11.78.37,11.78,1.99s-2.14,1.99-11.28,1.99h-11.28v15.93l7.63-.17c9.98-.22,10.95-.08,10.95,1.49,0,.76-3.91,1.33-9.07,1.33s-9.32.25-9.62.55-.35,3.57-.1,7.25l.46,6.7,11.16.38c16.01.55,14.74,2.96-1.79,3.42-10.37.29-13.62-.03-13.67-1.33"/>
  <path id="_x34_263" data-name="_x34_26" class="st2" d="M334.73,943.28c0-25.23.86-25.77,11.91-7.38,4.11,6.84,8.03,12.45,8.71,12.47.68.02,4.61-5.58,8.73-12.44,10.8-17.99,11.57-17.59,12.06,6.17.41,19.79-.16,23.81-2.98,20.99-1-1-1.35-6.46-1.05-16.25.34-11.15.05-14.74-1.21-14.74-.91,0-1.66.7-1.66,1.55,0,2.75-12.08,21.02-13.89,21.02s-8.15-9.14-12.13-17.59c-1.29-2.74-2.83-4.98-3.43-4.98s-1.08,7.17-1.08,15.93c0,13.27-.33,15.93-1.99,15.93s-1.99-3.18-1.99-20.67"/>
  <path id="_x34_264" data-name="_x34_26" class="st2" d="M433.57,962.34c-1.39-3.64-.01-38.63,1.54-39.15.83-.27,7.4,6.93,14.6,16.02,7.2,9.08,13.54,16.24,14.09,15.91.55-.33,1-7.74,1-16.46,0-13.2.33-15.85,1.99-15.85s1.99,3.17,1.99,20.57c0,22.83-.45,23.81-7.47,16.26-6.4-6.89-20.4-24.92-20.4-26.29,0-.69-.75-1.25-1.66-1.25-1.23,0-1.66,3.98-1.66,15.48s-.46,15.64-1.66,16.04c-.91.31-1.97-.27-2.36-1.28"/>
  <path id="_x34_265" data-name="_x34_26" class="st2" d="M156.87,943.38v-20.57h8.69c10.34,0,15.51,2.31,17.85,7.96,2.06,4.97.47,9.38-4.58,12.69-4.28,2.8-4.24,3.54.6,11.4,2.19,3.56,3.98,7.06,3.98,7.78,0,3.45-3.26.45-8.77-8.06-5.29-8.17-6.51-9.32-9.6-8.96-3.39.39-3.55.77-3.93,9.37-.3,6.77-.86,8.96-2.32,8.96-1.61,0-1.93-3.46-1.93-20.57M176.91,939.97c4.6-3.28,4.86-5.97.97-10.11-2.32-2.46-4.28-3.07-9.95-3.07h-7.07v15.93h6.1c4.04,0,7.4-.93,9.95-2.74"/>
  <path id="_x34_266" data-name="_x34_26" class="st2" d="M286.55,963.11c-.51-.51-.93-9.79-.93-20.62,0-16.61.31-19.69,1.99-19.69,1.09,0,2.02.75,2.06,1.66s.01,9.25-.06,18.53l-.13,16.87,11.35.38c6.43.22,11.35.96,11.35,1.71,0,1.51-24.18,2.6-25.63,1.15"/>
  <path id="_x34_267" data-name="_x34_26" class="st2" d="M384.21,962.22c3.23-8.42,19.18-39.4,20.28-39.41,1.31,0,20.11,38.06,19.59,39.68-.88,2.77-3.54.76-5.83-4.4l-2.69-6.09h-22.59l-2.64,5.97c-1.5,3.4-3.53,5.97-4.71,5.97s-1.78-.76-1.41-1.73M412.81,946.93c-3.69-9.1-7.35-16.12-8.41-16.12s-4.72,7.02-8.41,16.12c-.24.6,3.54,1.09,8.41,1.09s8.65-.49,8.41-1.09"/>
  <path id="_x34_268" data-name="_x34_26" class="st2" d="M641.21,963.07c-.06-.61-.02-7.76.1-15.9.11-8.14-.31-15.11-.95-15.51-.63-.39-3.81,3.23-7.06,8.05-3.25,4.82-6.59,8.99-7.41,9.26s-4.29-3.41-7.7-8.19-6.76-8.69-7.46-8.69-1.26,5.05-1.26,11.28c0,9.14-.38,11.28-1.99,11.28s-1.96-2.03-1.83-10.95c.32-22,2.73-24.03,12.2-10.27,3.51,5.1,6.93,9.27,7.6,9.27s4.26-4.33,7.97-9.62c10.28-14.64,11.23-13.79,11.23,10.18,0,14.66-.43,19.94-1.66,20.35-.91.3-1.71.05-1.77-.55"/>
  <path id="_x34_269" data-name="_x34_26" class="st2" d="M476.74,962.75c0-2.86,19.25-39.94,20.51-39.52,1.97.66,19.9,39.25,18.76,40.39-1.05,1.05-2.66-.85-6.35-7.53-2.23-4.03-2.4-4.08-12.84-4.08h-10.58l-3.09,5.54c-2.98,5.35-6.4,8.13-6.4,5.2M505.66,947.03c-.28-.55-2.16-4.43-4.19-8.63s-4.11-7.63-4.64-7.63c-.88,0-8.14,14.67-8.14,16.46,0,.44,3.93.8,8.74.8s8.51-.45,8.23-1"/>
  <path id="_x34_2610" data-name="_x34_26" class="st2" d="M534.48,963.44c-2.19-1-5.77-3.73-7.96-6.05-3.7-3.93-3.98-4.95-3.98-14.19v-9.96l5.5-5.13c7.12-6.64,12.78-7.77,20.91-4.17,3.49,1.54,6.11,3.59,6.11,4.77,0,2.58.23,2.61-7.2-.68-7.92-3.5-12.62-2.54-18.11,3.71-3.88,4.42-4.14,5.32-3.62,12.58.47,6.49,1.23,8.49,4.52,11.77,5.48,5.48,11.8,6.31,17.67,2.33,4.27-2.9,7.5-9.4,5.93-11.94-.38-.61-3.04-1.11-5.92-1.11s-5.23-.6-5.23-1.33,3.3-1.33,7.34-1.33c8.4,0,9.5,1.25,7.71,8.81-2.22,9.4-15.06,15.86-23.68,11.91"/>
  <path id="_x34_24" class="st2" d="M568.62,943.71l.37-20.24h12.94c16.21,0,17.53,2.5,1.6,3.04l-11.35.38.4,7.58.4,7.58,7.96-.37c7.99-.37,14.09,1.43,9.92,2.92-1.08.39-5.54.87-9.92,1.07l-7.96.37-.4,6.97-.4,6.97h12.01c9.8,0,12.01.37,12.01,1.99s-2.44,1.99-13.97,1.99h-13.97l.37-20.24"/>
  <path id="_x34_241" data-name="_x34_24" class="st2" d="M221.91,945.55v-18.62l-6.97-.4c-3.83-.22-6.82-1-6.64-1.73.2-.79,6.53-1.33,15.6-1.33s15.27.52,15.28,1.33c0,.73-2.96,1.51-6.6,1.73l-6.62.4-.37,18.07c-.27,13.01-.83,18.23-2.03,18.62-1.27.42-1.66-3.76-1.66-18.07"/>
  <path id="_x34_242" data-name="_x34_24" class="st2" d="M119.67,962.67c-.02-.76-.04-9.44-.04-19.29s.02-18.52.04-19.25c.03-.79,5.38-1.33,13.31-1.33,10.91,0,13.27.35,13.27,1.99s-2.14,1.99-11.28,1.99h-11.28v15.47l8.83-.11c5.95-.07,9.02.44,9.4,1.55.42,1.23-1.89,1.66-8.83,1.66h-9.4v14.5l11.29.38c16.11.55,14.93,2.95-1.67,3.42-8.72.24-13.62-.12-13.65-1"/>
  <path id="_x34_2611" data-name="_x34_26" class="st2" d="M799.57,962.65c-5.09-2.31-8.26-5.8-6.69-7.37.32-.32,3.56.99,7.18,2.93,4.81,2.56,7.58,3.27,10.23,2.6,3.82-.96,8.88-5.22,8.88-7.48,0-2.68-5.04-6.24-12.05-8.52-8.8-2.85-13.17-6.67-13.17-11.51,0-4.26,5.88-9.84,11.73-11.12,4.6-1.01,14.82,2.72,14.82,5.41,0,2.36-1.43,2.33-6.15-.14-4.59-2.4-7.23-2.5-11.73-.44-3.92,1.79-5.71,6.88-3.4,9.67.87,1.05,4.67,2.92,8.44,4.17,12.73,4.2,16.41,8.12,14.04,14.93-.97,2.78-3.17,4.9-7.03,6.77-6.87,3.33-7.95,3.33-15.09.09"/>
  <path id="_x34_2612" data-name="_x34_26" class="st2" d="M844.39,954.78c0-9.15-.02-9.19-7.96-19.71-8.48-11.23-9-12.26-6.14-12.26,1,0,4.96,4.29,8.79,9.54l6.96,9.54,2.82-3.89c7.23-9.96,10.92-14.37,12.45-14.87,3.24-1.07,1.56,2.54-5.64,12.11-7.27,9.65-7.3,9.74-7.3,19.2,0,7.56-.41,9.5-1.99,9.5s-1.99-1.9-1.99-9.17"/>
  <path id="_x34_243" data-name="_x34_24" class="st2" d="M748.53,945.7l-.37-18.25-6.34-.66c-3.49-.37-6.32-1.26-6.3-1.99.02-.81,6.03-1.33,15.3-1.33s15.27.52,15.28,1.33c0,.73-2.98,1.51-6.64,1.73l-6.65.4v18.51c0,15.41-.33,18.51-1.95,18.51s-2.02-3.24-2.32-18.25"/>
  <path id="_x34_244" data-name="_x34_24" class="st2" d="M656.22,943.71l.37-20.24h12.94c15.96,0,17.4,2.39,2.01,3.32l-10.96.66v14.52l8.51.04c5.41.03,8.7.62,9.05,1.64.38,1.12-2.18,1.71-8.51,1.99l-9.05.39v13.27l11.61.38c9.13.3,11.61.8,11.61,2.32s-2.6,1.94-13.97,1.94h-13.97l.37-20.24"/>
  <path id="_x34_2613" data-name="_x34_26" class="st2" d="M693.08,943.38c0-12.12.52-20.57,1.26-20.57.69,0,6.92,7.1,13.84,15.79,6.92,8.68,13.22,16.18,14,16.67.99.61,1.43-4.23,1.43-15.79,0-13.93.33-16.67,1.99-16.67s1.99,3.17,1.99,20.57-.32,20.57-1.94,20.57c-1.96,0-25.93-28.3-25.93-30.61,0-.68-.6-1.24-1.33-1.24-.81,0-1.33,6.19-1.33,15.93,0,13.27-.33,15.93-1.99,15.93s-1.99-3.17-1.99-20.57"/>
  <path id="_x34_2614" data-name="_x34_26" class="st2" d="M238.85,963.2c-1.11-1.11,18.02-40.38,19.46-39.94,1.58.48,1.78.85,11.86,21.73,4.66,9.64,8.15,17.86,7.75,18.25-1.67,1.67-3.13.37-5.87-5.26l-2.9-5.97h-21.5l-2.9,5.97c-2.75,5.66-4.19,6.93-5.9,5.22M267.04,947.6c0-1.12-8.02-16.83-8.6-16.83-1.22,0-8.54,15.6-7.71,16.43.83.83,16.31,1.2,16.31.39"/>
  <path id="_x34_245" data-name="_x34_24" class="st2" d="M919.75,945.7l-.37-18.25-6.97-.4c-5.08-.29-6.97-.93-6.97-2.36,0-1.64,2.59-1.9,15.93-1.59,9.48.22,15.94.91,15.95,1.7,0,.73-2.98,1.51-6.64,1.73l-6.65.4v18.51c0,15.41-.33,18.51-1.95,18.51s-2.02-3.24-2.32-18.25"/>
  <path id="_x34_2615" data-name="_x34_26" class="st2" d="M981.72,962.34c-.39-1.01-.54-10.16-.33-20.33.47-23.21,1.4-23.86,12.35-8.64,4.23,5.87,8.17,10.68,8.75,10.68s4.69-4.78,9.14-10.62,8.95-10.62,10.01-10.62c1.61,0,1.93,3.45,1.93,20.57s-.31,20.57-1.99,20.57-1.99-2.65-1.99-15.93c0-8.76-.54-15.93-1.2-15.93s-4.3,4.18-8.09,9.29c-3.79,5.11-7.34,9.29-7.89,9.29s-4.2-4.46-8.1-9.92c-3.9-5.45-7.36-9.65-7.69-9.32s-.66,7.58-.74,16.11c-.1,11.12-.61,15.67-1.8,16.07-.91.31-1.97-.27-2.36-1.28"/>
  <path id="_x34_246" data-name="_x34_24" class="st2" d="M199.02,960.97c-1.1-3-.7-33.85.47-35.69.67-1.05,1.15,6.32,1.16,17.77.02,18.66-.25,21.67-1.63,17.92"/>
</svg>