<!-- Jorent Logo - Optimized for Dark/Light Mode with Enhanced Responsiveness -->
<svg xmlns="http://www.w3.org/2000/svg" viewBox="0 0 1080 1022.73" class="jorent-logo">
  <defs>
    <style>
      /* CSS Variables for theme support */
      .jorent-logo {
        --primary-color: #2563eb;
        --secondary-color: #3b82f6;
        --text-color: #1f2937;
        --accent-color: #f59e0b;
        --gradient-start: #2563eb;
        --gradient-end: #0ea5e9;
        transition: all 0.3s cubic-bezier(0.4, 0, 0.2, 1);
      }

      /* Dark mode support */
      @media (prefers-color-scheme: dark) {
        .jorent-logo {
          --primary-color: #3b82f6;
          --secondary-color: #60a5fa;
          --text-color: #f3f4f6;
          --accent-color: #fbbf24;
          --gradient-start: #3b82f6;
          --gradient-end: #06b6d4;
        }
      }

      .dark .jorent-logo {
        --primary-color: #3b82f6;
        --secondary-color: #60a5fa;
        --text-color: #f3f4f6;
        --accent-color: #fbbf24;
        --gradient-start: #3b82f6;
        --gradient-end: #06b6d4;
      }

      /* Navbar variant */
      .navbar-logo .jorent-logo {
        --primary-color: #ffffff;
        --secondary-color: #f8fafc;
        --text-color: #ffffff;
        --accent-color: #fbbf24;
        --gradient-start: #ffffff;
        --gradient-end: #e2e8f0;
      }

      /* Footer variant */
      .footer-logo .jorent-logo {
        --primary-color: #ffffff;
        --secondary-color: #f8fafc;
        --text-color: #ffffff;
        --accent-color: #fbbf24;
        --gradient-start: #ffffff;
        --gradient-end: #e2e8f0;
      }

      .logo-building {
        fill: var(--primary-color);
        transition: fill 0.3s ease, transform 0.3s ease;
      }

      .logo-building:hover {
        fill: var(--secondary-color);
        transform: translateY(-1px);
      }

      .logo-base {
        fill: url(#buildingGradient);
        fill-rule: evenodd;
        transition: all 0.3s ease;
      }

      .logo-text {
        fill: var(--text-color);
        stroke: none;
        font-family: 'Inter', 'Helvetica Neue', Arial, sans-serif;
        font-weight: 700;
        transition: fill 0.3s ease;
      }

      .logo-text:hover {
        fill: var(--accent-color);
      }

      .logo-accent {
        fill: var(--accent-color);
        transition: all 0.3s ease;
      }

      /* Animation for logo */
      .jorent-logo:hover .logo-building {
        transform: scale(1.02) translateY(-1px);
        transform-origin: center bottom;
      }

      .jorent-logo:hover .logo-accent {
        filter: brightness(1.2);
      }

      /* Gradients */
      #buildingGradient stop:first-child {
        stop-color: var(--gradient-start);
      }

      #buildingGradient stop:last-child {
        stop-color: var(--gradient-end);
      }

      #accentGradient stop:first-child {
        stop-color: var(--accent-color);
      }

      #accentGradient stop:last-child {
        stop-color: #ea580c;
      }      /* Responsive optimizations */
      @media (max-width: 768px) {
        .jorent-logo {
          max-height: 2rem;
        }
      }

      @media (max-width: 480px) {
        .jorent-logo {
          max-height: 1.75rem;
        }
      }

      /* Enhanced hover effects */
      .jorent-logo:hover {
        filter: brightness(1.1) contrast(1.05);
      }

      /* Performance optimizations */
      .jorent-logo * {
        transform: translateZ(0);
        backface-visibility: hidden;
      }
    </style>
    
    <!-- Enhanced gradients for better visual appeal -->
    <linearGradient id="buildingGradient" x1="0%" y1="0%" x2="100%" y2="100%">
      <stop offset="0%" stop-color="var(--gradient-start)" />
      <stop offset="100%" stop-color="var(--gradient-end)" />
    </linearGradient>
    
    <linearGradient id="accentGradient" x1="0%" y1="0%" x2="100%" y2="100%">
      <stop offset="0%" stop-color="var(--accent-color)" />
      <stop offset="100%" stop-color="#ea580c" />
    </linearGradient>

    <!-- Shadow filters for depth -->
    <filter id="dropShadow" x="-50%" y="-50%" width="200%" height="200%">
      <feDropShadow dx="0" dy="2" stdDeviation="3" flood-color="rgba(0,0,0,0.2)"/>
    </filter>
  </defs>

      /* Responsive sizing */
      .logo-sm { height: 32px; width: auto; }
      .logo-md { height: 48px; width: auto; }
      .logo-lg { height: 64px; width: auto; }
      .logo-xl { height: 80px; width: auto; }
    </style>
  </defs>

  <!-- Building/Property Icon -->
  <g class="logo-building">
    <!-- Main building structure -->
    <path d="M388.97,340.31v96.9l-38.12,27.87v-124.77h38.12ZM388.97,540.47v182.68h-38.12v-153.61l38.12-29.08h0Z"/>
    <polygon points="412.64 495.44 388.55 513.79 356.26 538.48 336.47 553.57 336.47 723.16 298.36 723.16 298.36 533.34 323.97 513.79 323.97 513.79 360.28 486.08 412.64 446.15 465.01 486.08 501.32 513.79 501.32 513.79 526.93 533.34 526.93 723.16 488.81 723.16 488.81 553.57 469.02 538.48 436.74 513.79 412.64 495.44"/>
    <polygon points="583.85 184.83 583.85 723.16 545.73 723.16 545.73 210.4 583.85 184.83"/>
    <polygon points="572.69 238.55 377.81 368.46 350.85 340.31 579.52 187.64 572.69 238.55"/>
    <polygon points="545.73 39.18 545.73 577.5 583.85 577.5 583.85 64.75 545.73 39.18"/>
    <polygon points="556.9 92.9 751.78 222.81 778.74 194.66 550.07 41.99 556.9 92.9"/>
    <polygon points="740.62 169.08 740.62 723.16 778.74 723.16 778.74 194.66 740.62 169.08"/>
  </g>

  <!-- Building base and details -->
  <g class="logo-base">
    <polygon points="488.81 683.35 488.81 723.16 872.11 723.16 872.11 683.35 488.81 683.35"/>
    <polygon points="298.36 723.16 388.97 723.16 388.97 683.35 298.36 683.35 204.98 683.35 204.98 723.16 298.36 723.16"/>
    <polygon points="615.07 351.27 644.45 351.27 644.45 683.35 615.07 683.35 615.07 351.27"/>
    <polygon points="680.03 464.85 709.41 464.85 709.41 683.35 680.03 683.35 680.03 464.85"/>
  </g>

  <!-- Text: JORENT -->
  <g class="logo-text">
    <!-- J -->
    <path d="M221.76,881.21c-11.24-2.72-20.28-9.17-24.82-17.7-1.71-3.21-3.11-6.49-3.11-7.29,0-1.69,3.33-2.5,13.62-3.31,7.2-.57,7.32-.54,8.71,2.06,3.2,5.97,10.84,8.6,16.48,5.67,1.83-.95,4.24-2.97,5.35-4.48,1.96-2.67,2.02-4,2.29-46.93l.28-44.19,12.72.27,12.72.27.43,35.97c.47,39.69-.38,54.91-3.46,61.76-3.8,8.45-12.45,15.15-23.12,17.88-7.11,1.82-10.62,1.82-18.1.01"/>
    
    <!-- O -->
    <path d="M335.75,882.06c-15.8-2.64-33.88-15.73-41.5-30.02-13.85-25.98-6.59-59.74,16.53-76.9,23.08-17.13,52.04-17.1,75.11.1,10.54,7.86,17.92,19.11,21.38,32.62,2.07,8.08,1.52,26.34-1.01,33.56-4.57,13.04-11.1,22.03-21.71,29.86-6.15,4.54-16.53,9.01-24.22,10.43-5.31.98-19.59,1.18-24.58.35M361.29,858.17c23.51-10.77,29.09-43.98,10.56-62.85-5.57-5.67-8.1-7.26-14.71-9.22-17.98-5.34-35.77,5.24-41.85,24.89-3.77,12.17-1.28,26.56,6.39,36.98,8.96,12.17,25.83,16.52,39.62,10.21"/>
    
    <!-- R -->
    <path d="M431.99,822.95v-57.84h28.04c25.65,0,28.53.17,33.78,1.98,18.13,6.24,27.78,21.15,26.36,40.76-.86,11.94-5.19,19.52-14.18,24.83-2.72,1.6-4.95,3.31-4.96,3.79-.01.48,1.88,4.2,4.21,8.26,6.11,10.68,19.1,34.81,19.1,35.49,0,.32-6.45.57-14.34.57h-14.34s-10.53-20.9-10.53-20.9l-10.53-20.9h-17.34v41.8h-25.27v-57.84M482.61,819.03c5.18-1.83,7.35-3.73,9.86-8.66,4.02-7.87.1-18.17-8.37-22.02-3.17-1.44-6.38-1.82-15.42-1.84l-11.42-.02v16.36c0,9,.29,16.65.65,17.01,1.32,1.32,20.43.67,24.7-.84"/>
    
    <!-- E -->
    <path d="M546.69,822.94v-57.85l38.64.25,38.64.25.04,9.23c.02,5.08-.13,9.78-.35,10.45-.3.93-6.37,1.22-26.04,1.22h-25.66v25.27h51.59l-.28,9.96-.28,9.96-25.52.26-25.52.26v28.13l26.98.26,26.98.26.28,9.96.28,9.96h-79.78v-57.85"/>
    
    <!-- N -->
    <path d="M648.55,823.84v-57.84h23.16l5.18,6.56c5.86,7.42,22.4,27.69,23.2,28.43,1.39,1.28,23.86,30.04,26,33.26,2.99,4.51,4.37,4.7,3.71.52-.27-1.74-.62-17.81-.77-35.72l-.28-32.56,12.88-.27,12.88-.27v115.73h-21.3l-3.69-4.7c-2.03-2.59-9.16-11.23-15.85-19.2-11.01-13.13-31.23-38.85-36.8-46.82-1.22-1.74-2.51-3.16-2.87-3.16-.36,0-.38,7.55-.04,16.77.34,9.22.67,25.85.73,36.94l.11,20.17h-26.25v-57.84"/>
    
    <!-- T -->
    <path d="M810.03,865.96c-.06-8.15-.27-19.42-.48-25.03-.21-5.61-.38-20.15-.38-32.3v-22.09s-16.29-.27-16.29-.27l-16.28-.27v-20.41h88.46v20.41l-15.07.49-15.07.49.39,46.9.39,46.9h-25.56l-.1-14.82"/>
  </g>

  <!-- Subtitle: REAL ESTATE MANAGEMENT -->
  <g class="logo-text" style="font-size: 12px; font-weight: 400;">
    <text x="221" y="1000" class="logo-text">REAL ESTATE MANAGEMENT</text>
  </g>
</svg>
